/* XPM */
static char *c4c75c959e9c416b9b90239335f94481[] = {
/* columns rows colors chars-per-pixel */
"64 64 256 2 ",
"   c #000001",
".  c #02050B",
"X  c #080708",
"o  c #0B0A0D",
"O  c #140B0B",
"+  c #15130A",
"@  c #080C13",
"#  c #120E12",
"$  c #1B0E12",
"%  c #091216",
"&  c #0C1115",
"*  c #131214",
"=  c #1B1414",
"-  c #14151A",
";  c #17181B",
":  c #1C1A1C",
">  c #290403",
",  c #360605",
"<  c #3D0203",
"1  c #271609",
"2  c #33190D",
"3  c #231415",
"4  c #271718",
"5  c #241C1B",
"6  c #2C1C1D",
"7  c #341C1C",
"8  c #162219",
"9  c #27221D",
"0  c #3A2C13",
"q  c #392519",
"w  c #1A1D22",
"e  c #000F3B",
"r  c #2D1F23",
"t  c #1C2425",
"y  c #2C2323",
"u  c #272628",
"i  c #342323",
"p  c #3A2425",
"a  c #392926",
"s  c #342C2B",
"d  c #3B2C2B",
"f  c #35332D",
"g  c #2D3034",
"h  c #393536",
"j  c #490304",
"k  c #540102",
"l  c #5B0202",
"z  c #5A0709",
"x  c #571512",
"c  c #640103",
"v  c #6C0103",
"b  c #69050A",
"n  c #780306",
"m  c #6F1314",
"M  c #462A17",
"N  c #4E2F15",
"B  c #55361A",
"V  c #6C291C",
"C  c #591C24",
"Z  c #452626",
"A  c #432C2C",
"S  c #4B2D2B",
"D  c #572A2A",
"F  c #48342B",
"G  c #553728",
"H  c #492E31",
"J  c #592E31",
"K  c #443433",
"L  c #4C3433",
"P  c #493A39",
"I  c #533534",
"U  c #543A35",
"Y  c #583837",
"T  c #5C3E3A",
"R  c #702A2A",
"E  c #66342A",
"W  c #673936",
"Q  c #773838",
"!  c #384935",
"~  c #2E5732",
"^  c #5B4329",
"/  c #46443C",
"(  c #56433B",
")  c #5D423D",
"_  c #475133",
"`  c #67472A",
"'  c #6F4E30",
"]  c #6A4837",
"[  c #64423C",
"{  c #75473A",
"}  c #785538",
"|  c #1A3057",
" . c #353A46",
".. c #4D3C44",
"X. c #7F3E42",
"o. c #384246",
"O. c #3D6644",
"+. c #314C72",
"@. c #484646",
"#. c #544442",
"$. c #5B4442",
"%. c #5D4A45",
"&. c #584A4A",
"*. c #4B5A45",
"=. c #5B534B",
"-. c #524D55",
";. c #575758",
":. c #634A45",
">. c #684845",
",. c #644C4A",
"<. c #774945",
"1. c #68544A",
"2. c #76544A",
"3. c #634C53",
"4. c #685756",
"5. c #765B55",
"6. c #536950",
"7. c #6C694F",
"8. c #79635C",
"9. c #575B67",
"0. c #695C66",
"q. c #5A6862",
"w. c #676467",
"e. c #766767",
"r. c #74726D",
"t. c #830102",
"y. c #8A0407",
"u. c #8C040B",
"i. c #960308",
"p. c #880A14",
"a. c #960913",
"s. c #9C0912",
"d. c #93151A",
"f. c #A90209",
"g. c #BA0209",
"h. c #A30A14",
"j. c #AA0B16",
"k. c #B70B17",
"l. c #AA121B",
"z. c #B8111C",
"x. c #921C2A",
"c. c #B41626",
"v. c #913030",
"b. c #AD2C2E",
"n. c #CC0009",
"m. c #C60917",
"M. c #D60717",
"N. c #C5121D",
"B. c #E70213",
"V. c #C81624",
"C. c #D61828",
"Z. c #D31A30",
"A. c #EC152E",
"S. c #D22935",
"D. c #E72537",
"F. c #F3283B",
"G. c #8C4D35",
"H. c #845B38",
"J. c #AB5335",
"K. c #89633A",
"L. c #A73C46",
"P. c #CA3942",
"I. c #D93B4F",
"U. c #F62A45",
"Y. c #F22D4B",
"T. c #FA324A",
"R. c #FC3657",
"E. c #FF3966",
"W. c #865A49",
"Q. c #91524A",
"!. c #875B55",
"~. c #AD4E52",
"^. c #896648",
"/. c #986949",
"(. c #98744A",
"). c #88665A",
"_. c #987156",
"`. c #A66859",
"'. c #AD7255",
"]. c #A77558",
"[. c #A05963",
"{. c #866966",
"}. c #977667",
"|. c #93736E",
" X c #846D76",
".X c #897878",
"XX c #AB7469",
"oX c #CD4B4B",
"OX c #EF4F6A",
"+X c #E05760",
"@X c #CE706E",
"#X c #5F856B",
"$X c #748775",
"%X c #B18858",
"&X c #908776",
"*X c #B98767",
"=X c #B38D76",
"-X c #BCA067",
";X c #C39572",
":X c #CBA277",
">X c #345490",
",X c #4E6996",
"<X c #5A7199",
"1X c #8B7C83",
"2X c #E07A8A",
"3X c #798A8B",
"4X c #6C87B0",
"5X c #988A87",
"6X c #8C928B",
"7X c #999997",
"8X c #AE918B",
"9X c #A59996",
"0X c #99A79D",
"qX c #AAA79B",
"wX c #A19BA0",
"eX c #9AACA9",
"rX c #A9A7A7",
"tX c #B2AFAA",
"yX c #ABB5B6",
"uX c #B7B9B7",
"iX c #C99889",
"pX c #E79998",
"aX c #CBAA90",
"sX c #F299AE",
"dX c #D5B4AE",
"fX c #C3BBBA",
"gX c #B6C3BA",
"hX c #C3C2BD",
"jX c #D0C6BD",
"kX c #FFDABD",
"lX c #96ABC7",
"zX c #DDB6C8",
"xX c #BAC3C5",
"cX c #BBD0CF",
"vX c #C7C8C7",
"bX c #D2CBCC",
"nX c #CAD3CD",
"mX c #D2D1CE",
"MX c #C8CCD2",
"NX c #CCD6D7",
"BX c #D6D8D9",
"VX c #EEDDD2",
"CX c #DAE1DC",
"ZX c #CBD5E6",
"AX c #DADDE2",
"SX c #DCE1E4",
"DX c #DCE5EA",
"FX c #D6F1F3",
"GX c #E5E6E9",
"HX c #E5EAED",
"JX c #EDF3ED",
"KX c #E9EDF2",
"LX c #E9F8FA",
"PX c #F3F4F3",
"IX c #F7FAF9",
"UX c #FDFEFE",
/* pixels */
"L L H Y W >.{ { >.5.e.r.r.w.q.0.9.*.h u 9 i Z F U >.1.5.4.4.4.4.1.%.%.%.( ( $.:.T J H D S H $.$.%.3.4.4.1.1.1.%.#.$.#.*.=.4.1.4.",
"f d A H I T T W W 1.8.w.w.;.;.-.-.o.g - 3 6 q Z I ) 1.1.8.4.&./ P P [ 1.1.,.,.$.Y H Z Z Z I T $.%.%.,.1.=.%.( P K K P U P $.$.( ",
"h d s A L I Y Y T ,.0.0.q.;.-.o. .| u * 3 i p A U %.4.=.o.g 8 8 t t g @.4.2.,.$.T L d i p L $.>.>.>.1.1.1.( P d f f K P P P ( P ",
"f s u s A F S F F P &.;.-.-.+.o. .u w = 6 a F L ( %.@.u t 8 w s / / g w g ..>.#...K d i S Y >.1.1.3.1.1.>.( d 9 9 s d K P K d F ",
"g s u s f s d Z M p K / o.o.h g u w - r s A H ..U 9.e. X!.>.1.2.1.).)._ s g h T P d d d K Y >.>.>.1.,.,.[ L y = = : y s A f F H ",
"g u t u u i p 7 7 6 4 y g u t w - * : r d K H J 1XtXiX;XXX'.`.`.`.`.8X8.h f u P H d s r s F T [ [ >.T $.I Z 6 * + # : i A A A A ",
"u u t t 9 9 7 6 4 4 3 $ * + % & * : s H ..P J  XbX8XXX'.`.`.`.`._.=XaX&X%.f t g P d i r p F U ) W Y I L d i = o X & = 7 p d d a ",
"t t 9 9 5 r 5 3 3 3 = = + = = = 5 p K ....&...9XdXiX*XXX'.'.`./._.}.(.^.7.P : y P A i 6 p H I I U I A p 6 4 $ X . O = 7 p d a a ",
": t u u y i 6 5 4 3 $ 3 5 5 q i s P U &.3.-.0.8X:X=X*X].]././.W.^.K.{ ' ] ! 9 w A p i r i Z F S H A p 7 3 $ o . X # 3 6 p p a i ",
"; 9 s d a p p q 7 4 3 4 9 q q a L U &.3.3.0.4.=X:X;X;X*X].*X'.%X/.H.} ] ` _ 0 8 p Z p Z i p p A p p 4 - # o . . . # 5 r 7 i p i ",
"; y h L K d p p q i 7 i a 0 a d P ....3.3.3.3.aXdXaXaX%X;X*X).2.).(.} H.^ F f 8 H D D S A d p p p 4 $ # @ . . . o # 5 i i 6 i i ",
"9 K / ( ..P F U S A A F F F a d K ..#.-.-.&.3.,._ ^.*X%X_.0 + 3 F ).(.H.} F F ` W D J S F S Z i 4 - @ @ . . . . & 4 y d A d s i ",
"f @.-.=.3.,.,.$.U G F U U F a d K K ....@...%.H.` B H.K.N 1 0 ` N ^ ^.K.K._ } %XG.C J I I S S i 4 $ @ @ @ . . % - y a F F H d i ",
"@.;.;.w.0.8.8.1.( U ( U U L A d s g h  . ...3.} M 2 ' %XB 2 1 6 M N ^.(.} B ' V J.E J W W Y S Z r $ O . . @ % w 9 s d K L Y S p ",
"-.9.w.r. X X{.5.>.[ T T U L d y w r u u g h $.).N ' :XiX/./.} ` } )._.(.` ^ _.} H.Q T T [ T Y S p $ o @ @ @ - y s d H L I I S A ",
"9.w.r. X.X.X.X).2.1.) ) U d i y 4 - - w r p I aX;X;XdX:X(.'.XXK.^.%X%X^.` ` /.*XW.J >.>.>.>.[ I p 4 O o @ # w u d A S Y Y Y Y S ",
"0.w. X X X1X Xe.5.>.[ Y L A r 4 4 3 $ 6 p H D 8XaXaXdXaX;XJ./.'.(.K.H.K.' ` } Q.Q T >.3.<.>.T H p 6 $ O o - 9 s K I I Y W W I A ",
"0.e. X X X X X{.2.<.>.$.I H 7 4 4 4 7 C D J J /.:XiXaX*X^.H.K./.H.` ' } H.^ E E J >.>.<.<.>.T I H r 4 # o - w d K Y [ [ W T J Z ",
"0.0. X X X X{.3.>.1.:.T Y P d p 7 7 C J W W W !.-X*X^.B O G ].K.' B ` ' ^.' ' Y A Y $.$.$.>.>.T ..H r : # & = y K $.,.>.>.W D Z ",
"0.0. X0.0. X5.3.>.1.$.T Y I I H C Z D J Q <.W.!.].aXaX' 2._.].(./.` F ' } H.K.R A f P ..>.>.>.$.T P h 6 - - = y K ..$.#.#.$.F Z ",
"3.3.3.0.3.3.3.$.,.,.%.$.T T Y Y J J W <.<.Q.!.!._.aX8X%X`.} } } /.} B ^ ' ` ^.~.c.v.Y  .@.,.>.>.>.#.P s 5 - - y d h P P L P L Z ",
"$.>.3.3.3.3.....&.=.%.:.$.[ [ [ Q Q { <.!.!._.|._.^.N 2 > 1 3 X ^ /.^ B E B ).vXI.M.Z.b.X.3.-.=.,.$.P K y = - u u g s f d h d i ",
"Y I ......h  ...-.=.1.:.>.[ >.Q >.<.<.!.).{.{.[.@X} N E ] 2.<.G B ' ` F M N ).LXXXf.V.Z.U.Y.L.3.@.( #.K s = * t u u u y u s u r ",
"H A H d h  . ...4.4.5.4.,.$.>.>.>.>.4.7.{.[.P.C.zXnX%XpX2X;X`.' N B ^ M 0 M !.FX[.s.c.c.Y.A.F.E.~.,.! h s = % ; w t u t w t w ; ",
"g d d g h o.o.*.;.8.8.4.1./ / o./ &.5.~.I.U.A.R.UXMX` { Z 2 1 M F F 2 2 M N H.FX[.f.s.h.Z.S.Z.Y.R.E.~.T t : O & - - w - w w % % ",
"p u r u g o.@.-.=.4.8.%.9.{.L.oXoXOXE.U.A.D.B.2XUX!.G.K.^ N G ^ B 1 O 0 B N !.FX[.i.p.l.c.S.D.Y.Y.E.E.Y.R + ; O % - - - % % @ @ ",
"r w w u g o.@.-.;.4.F 3XzXE.E.E.R.R.D.F.U.U.n.dXIXC G.%X^ 0 N 0 1 1 0 N G x 5XZXx.n b c.Z.D.D.Y.Y.A.OXsXsXW X 3 * * # & @ . . . ",
"w - w w g / @.=.1.U 3XSXE.T.Y.Y.Y.Z.F.U.F.V.g.sXUXV G.%X} 8   X + B ' ^ B N xX8Xn n d.c.V.S.D.D.A.OXLXLXUXVXS O 5 $ # O # o o o ",
"e $ % w g h &.%.F 7XUXpXF.R.T.T.A.D.U.U.Z.N.B.+XUX!.V %X%X(.1   2 ` B B 0 8.vXd.b n c.l.c.Z.S.B.+XLXLXLXKXUXyXX 6 = # # O O # # ",
"& @ % - u P U 6 6XUXUX+XU.R.Y.A.D.Y.U.C.N.C.V.g.UXyX> %XK.(.H.N 0 B M 2 0 eX}.v b p.l.l.V.Z.M.Z.ZXLXHXKXKXIXKXh 4 5 = # & $ = : ",
"% % & - u 5 4 1XUXUXGXR.U.T.D.D.U.U.C.k.V.Z.S.n.OXJX; ^ (.(.H.0 2 M M 1 w.8Xn v b p.a.l.V.Z.n.sXLXKXKXKXHXHXIX6X  6 = # # : 9 7 ",
"& & - w X = yXUXIXUXbXD.T.T.U.U.U.V.N.Z.Z.D.F.U.A.2X[.t.G.(.` + 1 2 q < R n n c p.s.l.j.V.M.I.LXLXHXHXHXHXGXUXxX# 4 = # * 6 q i ",
"- % % X o MXUXSXJXIXjXD.T.T.D.D.N.N.C.D.F.F.U.T.D.A.F.A.N.b.v.m z j k p.@XG.c p.l.j.z.z.V.n.sXLXDXHXGXHXDXHXPXDXu O - # 3 r p Z ",
"% @ %   wXUXxXxXIXIXbXD.F.C.C.N.N.S.D.F.F.F.F.F.F.D.A.V.N.k.g.u.c n y.~.kX].n j.j.l.j.z.n.S.GXHXDXDXDXSXSXDXSXUX;.  & & 6 r d H ",
"- -   ..UXUXyXDXJXJXCXb.n.g.h.s.j.z.z.j.j.h.s.y.n c l n t.v k k n j.t.'.aXQ.i.f.f.z.l.V.g.@XLXGXAXAXSXAXAXAXAXUX6X  % % : u d H ",
": y X 7XUXPXNXJXCXBXFXv.i.u.n v v c k j j j < j z n p.n l z n h.V.f.l.pX;X;XL.l.S.M.k.C.g.8XLXAXbXAXAXNXBXSXAXLXcX. @ - t f A P ",
"s y #.KXUXJXIXJXnXmXJX&Xl n l k z z l c v u.l.z.l.a.n b p.z.N.N.y.a.iX'.x ' %XXXS.L.c.M.m.tXIXnXBXAXBXBXNXxXcXZXNX .. t f P P $.",
"d 7 .XUXPXJXJX6X8XgXgXeXm c k z v y.i.z.C.z.a.n v n d.N.V.k.h.t.v.dXaXQ.Q E G.].@XrXG.B.n.qXLXnXAXBXZXbXeXlXMXvXFX9.  g h / &.&.",
"d i 5XUXJXIXqX_ &X&X}.eX).< c v n s.z.p.z l b a.z.V.N.j.s.u.t.n @XVX'.'.XXXX=X;X*X8Xx.m.i.XXDXCXBXMXvXhXxXUXKX3XDXr.. h P #.%.4.",
"d 6 e.IXJXJX&X} 7.#X7.7.&XD k v h.t.j j p.l.C.m.j.j.h.h.a.y.y.i.oXaXiXaX*X/./.^./.XXb.f.u.n uXDXbXBXMXGXKXxXwX@ lXeX& P #.&.3.4.",
"d 4 7XUXCXHX9X2.1.4.*.1.7.f , h.n > x m.B.M.k.c.c.k.h.a.a.i.y.f.J.aXaXaX=X_.XX].H.`.x.f.a.c |.UXUXIXPXCX3Xr.8X9.yXrX7 #.$.&.4.4.",
"d 4 rXUXfXfXqX2.2.2.qXvXu   9 d.n t.@XiXL.~.[.P.N.h.a.h.s.l.@X@X@XaX'.^.H.G./.'._.5XL.i.a.c dXUXvX6X3X| e | | +.+.-.W ,.,.:.=.;.",
"h $ qXUXgXwX&Xr.5.|.GXyX. % 8 u d.g.P.9X).oXS.m.h.s.h.j.f.P.aX=X%X(.} /.XXXX%X} 1.8Xb.y.u.v 8X<X| +.>X3X3X>X+.+.,Xw.[ 1.>.1.,.3.",
"a O rXIXjXqX&X7.>..XjX6X  ; w t S S.M.C.A.M.f.h.h.l.j.j.V.j.y.l.p.m R ` B } H.' ^.G.t.u.p.k 4 4XDXUXyX4XmXVX0XlXBX7X1.>.1.,.$.$.",
"i O tXUXvXtXr.1.e.5XzX1X. : y a h Q S.C.N.j.j.j.h.h.l.c.z.u.h.g.t.i.V.(.K.B + ^ 8.J.i.n u., 6 UXUXGX4X>X<X4X>X<X,X>X3.{ :.) ( #.",
"y O uXUXvXwX&X|.8XrXBX XX 6 p A I h R f.i.s.j.h.h.h.j.h.a.h.N.k.z.V.f.oX-XB 1 0 } OX2Xc n j S cX4X,X<X4X4X4XlX4XlXlXe.E <.[ ) #.",
"y X tXIXhXtX7X6X8XwXfX;.$ Z A D D Y ( d.f.k.h.s.s.h.h.a.a.h.k.j.j.a.y.b.%XB 0 _ ` f.VX9Xk k > ,XlXZXLXIXPXPXIXUXIXIXBX[ <.<.[ [ ",
"y   rXUXvXtX7X.X5XrXhX&.q J D J E W T Q k.f.j.s.a.a.a.i.i.i.i.y.u.u.u.h.(.N + 0 m n ~.UXtXj > KXIXUXIXPXHXSXBXZXAXHXLX{.Q 2.2.[ ",
"5   7XUXbXtX7X5X5XtXrXY J W J W R W Y L.V.t.s.h.s.s.s.h.l.L.b.x.t.y.i.y.J.0   , b b  XZXUXxX XUXPXPXPXKXGXKXSXNXMXAXUX9XR <.<.>.",
"=   wXUXmXuXqX5X5XfX7XJ ] W W Q W R J Q.T.k.n y.u.u.u.d.fX&XQ.qXXXd.d.L.z.Q 1 k k !.cXMXGXUXUXHXPXPXPXKXGXAXSXKXAXMXPXuXJ Q.<.<.",
"o   rXUXmXvXtX7X7XbXrXD >.X.Q Q R Q R `.I.B.z.y.n n t.n tX=Xm XXvXXXx.jXy.n x > D yXgXcXBXBXKXLXPXIXPXPXKXKXKXKXKXDXKXyXE <.<.<.",
".   6XUXmXvXuX9X5XBXuXJ <.G.Q Q Q Q Q.J.oX@Xg.y.b b v c 5XqXz [.}.}.5X&Xv t.a.>.$X6XyX0XyXxXNXSXHXKXKXIXIXUXKXDXAXDXUXrXD X.<.<.",
"-   -.UXCXmXfXwX9XAXqXE <.{ Q Q Q X.!.'.A.dXQ.v v b l l Q.{.k G.!.V yX8Xv t.t.m $X#X$Xr.7XeXyXvXZXGXDXKXLXKXKXKXAXNXIXuXS Q >.>.",
"t X u GXPXmXjXfXuXmXe.E <.<.Q Q Q X.).oXB.iX9Xp.v l c v v R <.c v c v.Q.k n l v Q $XO.q.7XeX$XyXuXvXAXAXDXKXDXDXDXAXLXMXS J T T ",
"h : f GXUXCXmXhXfXbXe.T >.[ W W X.<.(.J.n.@XXXv.}.).R v.v x.&Xn n v m V `.l E qX{ }.3XO.$XyX$X6XyXwXxXMXMXGXDXAXAXSXGXMXI S Y Y ",
"/ u ;.UXHXhXhXfXjXAX8.U [ [ W [ <.<.].b.n.T.b.i.tX8XqX8X&XV .XQ |.&X[ R 8X&Xx 0X{ Q.gX$X_ 0XgXq.7X0X6XyXxXMXAXBXNXZXSXNX..Z Y I ",
"/ f e.JXvXvXmXhXvXfX,.( ( ) [ >.W.8.~.k.f.M.OX/.tXX.=XG.8X).qX5.&X6Xl x.{ 0XM ).}.V eX0X$XO.gXeXq.0X6X6X0XyXMXnXMXMXBXNX=.Z T ) ",
"&.K .XIXCXbXmXhXvXfX=.Y #.&.>.2.).8.oXn.h.g.C.'.8XXX|.}.[.}.).{.} 0Xl qX8.&X&XR cXC G %.}.#X6.gX6X6.$X3X3X6XyXvXuXhXvXNX4.F :.:.",
"=.#..XIXGXCXmXvXBXuX>.%.%.,.4.5.!.e.P.n.f.N.f.i.i.b.L.}.G.5X!.7XE eXV Q &X<.8.x G.D > > 2 r.7.O.eX6X6.r.$X6X7XgXyXyXvXnX1.U :.>.",
"4.:.&XIXGXCXmXvXVXbX0.3.4.4.4.5.8.r.P.M.f.z.m.h.t.n t.y.y.x.m R x m C l l k j v j < , < , , 7.6.O.6X$X*.6.q.$X0XuXuXnXgX[ <.2.1.",
"7.5.e.IXUXCXCXmXvXKX1X$.4.4.5.5.5.8.P.m.f.k.N.k.h.u.u.u.u.n v l l j b z k z b z j < < j , > > F O.O.q.r.6.6.q.$X7XyXCXqX` !.!.5.",
"5.8.2.jXUXPXGXBXbXVX1X3.e.8.8.5.4.5.P.M.k.k.N.g.f.a.s.s.u.n c l j z z < k c z k < < < < , , > > 2 ^ O.O._ *.6.r.6XrXNX{.<.!.).8.",
"5.8.<.wXPXgXmXbXvXKX9X5.{.{.8.5.5.7.P.M.k.k.k.k.j.s.s.a.p.p.b z j j j x z z j j < < < < , , , > > j E ' O.~ ! ~ 6.$X7X).W.!.).).",
"5.5.<.5XCXhXBXBXbXGXrX5. X{.8.5.2.5.D.M.N.V.m.f.k.j.f.h.h.a.b z z j j j j j , j j < < < < , > > , > z b B =.O.~ 8 6.9X|.!.).).)."
};
