/* XPM */
static char *_62172b6bf484fa1e25b88abd4a0026b[] = {
/* columns rows colors chars-per-pixel */
"32 32 254 2 ",
"   c #010102",
".  c #0C0B0A",
"X  c #150905",
"o  c #0D0D11",
"O  c #0E1218",
"+  c #131415",
"@  c #2C1207",
"#  c #241A15",
"$  c #36291F",
"%  c #060823",
"&  c #081323",
"*  c #171A25",
"=  c #070A31",
"-  c #071139",
";  c #201F20",
":  c #1E242D",
">  c #172936",
",  c #28292C",
"<  c #252834",
"1  c #2A2D37",
"2  c #2C323D",
"3  c #353739",
"4  c #4A2D1A",
"5  c #562F19",
"6  c #65280E",
"7  c #593826",
"8  c #413F3D",
"9  c #603D22",
"0  c #6F411D",
"q  c #4F4C38",
"w  c #764E2C",
"e  c #7A4828",
"r  c #5B633F",
"t  c #0E1D41",
"y  c #1B2542",
"u  c #252A44",
"i  c #2A3344",
"p  c #333743",
"a  c #353945",
"s  c #383C48",
"d  c #3A3D4B",
"f  c #243C58",
"g  c #343D56",
"h  c #3C424D",
"j  c #2E4157",
"k  c #3D4451",
"l  c #394559",
"z  c #364A66",
"x  c #38516A",
"c  c #3C5874",
"v  c #474748",
"b  c #5D4B4C",
"n  c #575749",
"m  c #404652",
"M  c #434955",
"N  c #4A4D53",
"B  c #434C5A",
"V  c #484D59",
"C  c #4C525E",
"Z  c #535558",
"A  c #6B4A47",
"S  c #625B5D",
"D  c #725D59",
"F  c #5D6653",
"G  c #696454",
"H  c #726D52",
"J  c #4A5463",
"K  c #4C5865",
"L  c #435368",
"P  c #4D5B6B",
"I  c #525760",
"U  c #515E6E",
"Y  c #445B73",
"T  c #515F73",
"R  c #615663",
"E  c #49637A",
"W  c #546372",
"Q  c #596877",
"!  c #5A6876",
"~  c #576678",
"^  c #5D6D7B",
"/  c #67676B",
"(  c #756A66",
")  c #6B726B",
"_  c #646B7B",
"`  c #62717E",
"'  c #727477",
"]  c #863619",
"[  c #98531C",
"{  c #844B2A",
"}  c #974D20",
"|  c #8E512C",
" . c #97552C",
".. c #875E35",
"X. c #9B5338",
"o. c #A85724",
"O. c #B75A2F",
"+. c #A65B36",
"@. c #B45235",
"#. c #99692F",
"$. c #8D6639",
"%. c #98673C",
"&. c #B66626",
"*. c #A96C30",
"=. c #A9653B",
"-. c #B76738",
";. c #B8733F",
":. c #C66A37",
">. c #D56E38",
",. c #C2743F",
"<. c #EB793D",
"1. c #955B4C",
"2. c #976A40",
"3. c #886C59",
"4. c #996C58",
"5. c #A46B44",
"6. c #A66A45",
"7. c #B56B45",
"8. c #A37444",
"9. c #AD7344",
"0. c #AE7B49",
"q. c #B67847",
"w. c #BC7A45",
"e. c #BE6152",
"r. c #A87B56",
"t. c #B67B55",
"y. c #8E786E",
"u. c #A37C61",
"i. c #C36B43",
"p. c #C47647",
"a. c #CB7C4D",
"s. c #D67946",
"d. c #C26C53",
"f. c #C87957",
"g. c #D87858",
"h. c #E27644",
"j. c #E17E58",
"k. c #7C8265",
"l. c #8D9633",
"z. c #97A33A",
"x. c #889549",
"c. c #8D9452",
"v. c #AD835F",
"b. c #BC8153",
"n. c #BE845B",
"m. c #9AA74D",
"M. c #A5AB48",
"N. c #ABB44B",
"B. c #BBBD4D",
"V. c #A4AC56",
"C. c #B4B65A",
"Z. c #938572",
"A. c #9E9975",
"S. c #A9916C",
"D. c #BE9B7C",
"F. c #9EA665",
"G. c #A7A668",
"H. c #B9BC66",
"J. c #B3B06F",
"K. c #CD8247",
"L. c #D58248",
"P. c #C88556",
"I. c #DD8554",
"U. c #D88758",
"Y. c #D6935B",
"T. c #E38454",
"R. c #E58958",
"E. c #F18850",
"W. c #E7925A",
"Q. c #FA9957",
"!. c #F4A35E",
"~. c #CC916F",
"^. c #E88C68",
"/. c #E9976A",
"(. c #F59A6A",
"). c #EC9C74",
"_. c #EA9978",
"`. c #F39673",
"'. c #C3B37B",
"]. c #EAA76C",
"[. c #F9A764",
"{. c #FBB16C",
"}. c #E8A979",
"|. c #F5A675",
" X c #EAB277",
".X c #F9B779",
"XX c #B9C152",
"oX c #BCC569",
"OX c #C4D35E",
"+X c #E7D06D",
"@X c #EDC97C",
"#X c #FFC178",
"$X c #E2E679",
"%X c #5F7080",
"&X c #637280",
"*X c #7C7F83",
"=X c #7D8383",
"-X c #7A8D95",
";X c #7489B5",
":X c #878787",
">X c #929894",
",X c #999995",
"<X c #A59D8D",
"1X c #B1AA8E",
"2X c #999DA2",
"3X c #A7A8A4",
"4X c #B2B2A7",
"5X c #B4B8BB",
"6X c #F09F87",
"7X c #CBB281",
"8X c #DBB288",
"9X c #F7AC86",
"0X c #E7B488",
"qX c #FAB28F",
"wX c #E8B995",
"eX c #F2B795",
"rX c #C7BBA2",
"tX c #D1BCA1",
"yX c #F3BFA3",
"uX c #DCCC88",
"iX c #D6D393",
"pX c #F3CE8C",
"aX c #E3D893",
"sX c #FFD794",
"dX c #EFEA90",
"fX c #F7E397",
"gX c #DACEA3",
"hX c #CDC8B3",
"jX c #D9D8BC",
"kX c #E6C7AA",
"lX c #F3CCA7",
"zX c #E9CDB2",
"xX c #ECD3BA",
"cX c #ECE3AF",
"vX c #F7E8B6",
"bX c #9AACC9",
"nX c #BFC5C4",
"mX c #C6C7C7",
"MX c #DADBDA",
"NX c #E4DDD6",
"BX c #F4EBC4",
"VX c #F3F3D4",
"CX c #FBF2DC",
"ZX c #C8D2E9",
"AX c #D2D4ED",
"SX c #DEE1E1",
"DX c #E7E7E6",
"FX c #F1EEE4",
"GX c #F1F3EE",
"HX c #E8EBF7",
"JX c #FDFDF6",
"KX c #F5F7F9",
"LX c #F2F4FC",
"PX c #FEFEFF",
/* pixels */
"~ W ! ! ^ ^ ^ ^ ^ ^ ` ` ~ E W W T %X%X%X&X%X&X_ ` ` Q ^ >X4XtXrX",
"U P U U U U W W W W c c ' Z.'.8XD.y.' c Y ^ ~ ! Q ! T <XxXeX6X0X",
"U U P U U U U W W c W ~.{.fXPXVXsX#X|.D.' c W ! Q U ^ tXsX@X@XpX",
"P P U P U U U U x ( {.#X.XpXCXvX.X{.[.[.[.y.Y W Q T Y :XuXaXiXaX",
"K P P U U U W x / !. X8X0XwX X X X X!.W.Q.!.' Y ~ P K A.cXLXKXLX",
"K K U P P P Y P W.[.0XkXzXzXwX8X}..XpX(.!.W.t.P Y P A.dXBXLXKXFX",
"K K K K K P x 3.Q.|.lXxXzXjXzXxXeX|..X!.R.Y.n./ z ) aXgXuXdXcXfX",
"J L K K P K x t.Q.}.lXeXwXwXwXyXlX_.R.R.a.P.P.( z A.fXjX4X,XgXGX",
"J J J J J x I P.W.W./././.`.).^.)._.R.s.,.b.a.D z G.vXVXbX;X3XZX",
"B J J J C L I P.I.U.I.^.).}.9X_.6X/.R.s.p.b.b.3.z D.vXFXMXjX'.;X",
"B J C J J L C r.L.W.|.9XqXeXqXqXqX|./.R.p.P.b.r.f Z.fXDXGXdX+X<X",
"B k B B C J j 3.W./.}.|.`.`.`.^.f.6.5.t.K.p.b.n.4.F 7XJXPXBXBXbX",
"k k m M M k N u.K.$...;.I.h.i.7.{ 4 7 2.P.K.9.U.E.A / cXJXPXPXHX",
"k k k k k j 4.[.t.e # X 0 -.w.{ 6 5 b 6.Y.U.7.,.<.D f H J.gXgX7X",
"h h h k k j b I.P.%.9 @ X 9.9X+.{ +.a.I.K.L.p.:.<.D j g m n n v ",
"h h h h h j N :.K.].W.-.=.).|.h.^.U._.^.R.s.q.j.h.G l V M l l l ",
"v m k h k k l -.T.`.`.9X(._._.s.U.`.6X`.R.I.9.I.g.Z B C C C C C ",
"s s h h h h i 4.Q.T.E.T.g./.^.R.j.O.>.j.g.a.9.Q.R.j k V V V V V ",
"p p p p s s y G Q.s.>.:.U.I.R.f.f.d.o.:.a.9.9.o.A j d d v m m m ",
": : : : < 1 : < ..s.-.,.d.| +.w 1.f.7.O.p.0.w.# > d p s a s d s ",
"*X=X=X:X/ N :X-X-X;.&.9.f.X.] @.p.w w p.q.0.;.9 s >XmX5X5X5X5X5X",
"LXGXKXPXSXnXKXPXPXD.&. .{ 6.6.v.r.1.X.q.t.8.*.w a 2XLXLXPXPXPXPX",
"DXGXKXKXFXSXJXPXPXNX*.*.X.t.D.d.e.g.p.5.8.$.#.0 u n J.aX3X_ *XNX",
"tXNXGXGXSXZXAXDXGX>X2.;.s.d.@.@.i.i.6.2.%.w [ 5 t n N.x.l.S.c.F ",
"1XMXLXHXHXjXA.'.C.z.H p.7.-.+.=.7.=.8.8...{ [ # u k m.N.V.oXiXF.",
"nXjXcXiXgXM.z.oXB.m.> ..W.f.g.g.d.7.0.$.e -.} O p h q x.XXoXk.oX",
"dXoXH.oXV.z.V.J.C.G - . 0.U.t.6.6.6.$...| >.5 & 1 = r N.x.G.OXc.",
"$XdX$XoXM.XXoXOXm.p 2   @ K.2.2.2.2...| :. .  * > & 3 x.) = 3 P ",
"G.c.V.l.N.N.N.z.v a + O   *.w.8.6.8.%.-.+.X   * & Z y.i 2 2 h s ",
"y y y % * 8 v S S , 2 1   4 E.a.q.f.s.| .   . 3 v v S :X2 < h i ",
"u N s : * mX:Xv ( h Z ;     9 w.p.5.7         1 3 V 2X) * 2 h 2 ",
"a N v 3 * ' hXZ 2 v , + + o o # $ + . + o n Z * R ,Xv . , h k a "
};
